<svg xmlns="http://www.w3.org/2000/svg" xmlns:xlink="http://www.w3.org/1999/xlink" width="500" zoomAndPan="magnify" viewBox="0 0 375 374.999991" height="500" preserveAspectRatio="xMidYMid meet" version="1.0"><defs><clipPath id="eecf0ddccf"><path d="M 104 70 L 337.5 70 L 337.5 305 L 104 305 Z M 104 70 " clip-rule="nonzero"/></clipPath><clipPath id="aabd8c8327"><path d="M 37.5 66.75 L 279 66.75 L 279 308.25 L 37.5 308.25 Z M 37.5 66.75 " clip-rule="nonzero"/></clipPath></defs><g clip-path="url(#eecf0ddccf)"><path fill="#ffde59" d="M 337.5 187.5 C 337.5 251.875 285.257812 304.117188 220.882812 304.117188 C 156.507812 304.117188 104.265625 251.875 104.265625 187.5 C 104.265625 123.125 156.507812 70.882812 220.882812 70.882812 C 285.257812 70.882812 337.5 123.125 337.5 187.5 Z M 337.5 187.5 " fill-opacity="1" fill-rule="nonzero"/></g><g clip-path="url(#aabd8c8327)"><path fill="#ffffff" d="M 158.242188 308.242188 C 91.640625 308.242188 37.5 254.101562 37.5 187.5 C 37.5 120.898438 91.640625 66.757812 158.242188 66.757812 C 224.84375 66.757812 278.984375 120.898438 278.984375 187.5 C 278.984375 254.101562 224.84375 308.242188 158.242188 308.242188 Z M 158.242188 75.011719 C 96.179688 75.011719 45.753906 125.4375 45.753906 187.5 C 45.753906 249.5625 96.179688 299.988281 158.242188 299.988281 C 220.304688 299.988281 270.734375 249.5625 270.734375 187.5 C 270.734375 125.4375 220.222656 75.011719 158.242188 75.011719 Z M 158.242188 75.011719 " fill-opacity="1" fill-rule="nonzero"/></g></svg>